<mxfile host="Electron" agent="Mozilla/5.0 (Windows NT 10.0; Win64; x64) AppleWebKit/537.36 (KHTML, like Gecko) draw.io/26.0.9 Chrome/128.0.6613.186 Electron/32.2.5 Safari/537.36" version="26.0.9">
  <diagram name="Diagrama de Estados - NotificaciÃ³n" id="diagram-1">
    <mxGraphModel dx="757" dy="573" grid="1" gridSize="10" guides="1" tooltips="1" connect="1" arrows="1" fold="1" page="1" pageScale="1" pageWidth="827" pageHeight="1169" math="0" shadow="0">
      <root>
        <mxCell id="0" />
        <mxCell id="1" parent="0" />
        <mxCell id="s9Bnqli66w5FFqCg6i3b-2" value="" style="ellipse;html=1;shape=endState;fillColor=#000000;strokeColor=#ff0000;" vertex="1" parent="1">
          <mxGeometry x="500" y="830" width="30" height="30" as="geometry" />
        </mxCell>
        <mxCell id="s9Bnqli66w5FFqCg6i3b-3" value="" style="ellipse;html=1;shape=endState;fillColor=#000000;strokeColor=none;" vertex="1" parent="1">
          <mxGeometry x="500" y="340" width="30" height="30" as="geometry" />
        </mxCell>
        <mxCell id="s9Bnqli66w5FFqCg6i3b-4" value="Pendiente" style="rounded=0;whiteSpace=wrap;html=1;" vertex="1" parent="1">
          <mxGeometry x="475" y="410" width="80" height="20" as="geometry" />
        </mxCell>
        <mxCell id="s9Bnqli66w5FFqCg6i3b-5" value="" style="endArrow=classic;html=1;rounded=0;entryX=0.5;entryY=0;entryDx=0;entryDy=0;exitX=0.5;exitY=1;exitDx=0;exitDy=0;" edge="1" parent="1" source="s9Bnqli66w5FFqCg6i3b-7" target="s9Bnqli66w5FFqCg6i3b-2">
          <mxGeometry width="50" height="50" relative="1" as="geometry">
            <mxPoint x="515" y="630" as="sourcePoint" />
            <mxPoint x="460" y="610" as="targetPoint" />
          </mxGeometry>
        </mxCell>
        <mxCell id="s9Bnqli66w5FFqCg6i3b-6" value="se indica eliminar" style="text;html=1;align=center;verticalAlign=middle;resizable=0;points=[];autosize=1;strokeColor=none;fillColor=none;" vertex="1" parent="1">
          <mxGeometry x="530" y="460" width="120" height="30" as="geometry" />
        </mxCell>
        <mxCell id="s9Bnqli66w5FFqCg6i3b-7" value="Eliminada" style="rounded=0;whiteSpace=wrap;html=1;" vertex="1" parent="1">
          <mxGeometry x="475" y="550" width="80" height="20" as="geometry" />
        </mxCell>
        <mxCell id="s9Bnqli66w5FFqCg6i3b-8" value="" style="endArrow=classic;html=1;rounded=0;entryX=0.5;entryY=0;entryDx=0;entryDy=0;exitX=0.5;exitY=1;exitDx=0;exitDy=0;entryPerimeter=0;" edge="1" parent="1" source="s9Bnqli66w5FFqCg6i3b-4" target="s9Bnqli66w5FFqCg6i3b-7">
          <mxGeometry width="50" height="50" relative="1" as="geometry">
            <mxPoint x="525" y="580" as="sourcePoint" />
            <mxPoint x="525" y="840" as="targetPoint" />
          </mxGeometry>
        </mxCell>
        <mxCell id="s9Bnqli66w5FFqCg6i3b-9" value="" style="endArrow=classic;html=1;rounded=0;entryX=0.5;entryY=0;entryDx=0;entryDy=0;exitX=0.491;exitY=0.762;exitDx=0;exitDy=0;exitPerimeter=0;" edge="1" parent="1" source="s9Bnqli66w5FFqCg6i3b-3" target="s9Bnqli66w5FFqCg6i3b-4">
          <mxGeometry width="50" height="50" relative="1" as="geometry">
            <mxPoint x="410" y="660" as="sourcePoint" />
            <mxPoint x="460" y="610" as="targetPoint" />
          </mxGeometry>
        </mxCell>
        <mxCell id="s9Bnqli66w5FFqCg6i3b-10" value="Modificada" style="rounded=0;whiteSpace=wrap;html=1;" vertex="1" parent="1">
          <mxGeometry x="130" y="410" width="80" height="20" as="geometry" />
        </mxCell>
        <mxCell id="s9Bnqli66w5FFqCg6i3b-11" value="" style="endArrow=classic;html=1;rounded=0;entryX=1;entryY=0.5;entryDx=0;entryDy=0;exitX=0;exitY=0.5;exitDx=0;exitDy=0;" edge="1" parent="1" source="s9Bnqli66w5FFqCg6i3b-4" target="s9Bnqli66w5FFqCg6i3b-10">
          <mxGeometry width="50" height="50" relative="1" as="geometry">
            <mxPoint x="525" y="440" as="sourcePoint" />
            <mxPoint x="525" y="560" as="targetPoint" />
          </mxGeometry>
        </mxCell>
        <mxCell id="s9Bnqli66w5FFqCg6i3b-12" value="se indica modificar" style="text;html=1;align=center;verticalAlign=middle;resizable=0;points=[];autosize=1;strokeColor=none;fillColor=none;" vertex="1" parent="1">
          <mxGeometry x="275" y="388" width="120" height="30" as="geometry" />
        </mxCell>
        <mxCell id="s9Bnqli66w5FFqCg6i3b-13" value="Enviada" style="rounded=0;whiteSpace=wrap;html=1;" vertex="1" parent="1">
          <mxGeometry x="130" y="550" width="80" height="20" as="geometry" />
        </mxCell>
        <mxCell id="s9Bnqli66w5FFqCg6i3b-14" value="En revision" style="rounded=0;whiteSpace=wrap;html=1;" vertex="1" parent="1">
          <mxGeometry x="130" y="610" width="80" height="20" as="geometry" />
        </mxCell>
        <mxCell id="s9Bnqli66w5FFqCg6i3b-15" value="Rechazada" style="rounded=0;whiteSpace=wrap;html=1;" vertex="1" parent="1">
          <mxGeometry x="240" y="670" width="80" height="20" as="geometry" />
        </mxCell>
        <mxCell id="s9Bnqli66w5FFqCg6i3b-16" value="Validada" style="rounded=0;whiteSpace=wrap;html=1;" vertex="1" parent="1">
          <mxGeometry x="70" y="670" width="80" height="20" as="geometry" />
        </mxCell>
        <mxCell id="s9Bnqli66w5FFqCg6i3b-17" value="Autoridades" style="rounded=0;whiteSpace=wrap;html=1;" vertex="1" parent="1">
          <mxGeometry x="70" y="760" width="80" height="20" as="geometry" />
        </mxCell>
        <mxCell id="s9Bnqli66w5FFqCg6i3b-18" value="Procesada" style="rounded=0;whiteSpace=wrap;html=1;" vertex="1" parent="1">
          <mxGeometry x="70" y="835" width="80" height="20" as="geometry" />
        </mxCell>
        <mxCell id="s9Bnqli66w5FFqCg6i3b-19" value="" style="endArrow=classic;html=1;rounded=0;entryX=0.5;entryY=0;entryDx=0;entryDy=0;" edge="1" parent="1" target="s9Bnqli66w5FFqCg6i3b-13">
          <mxGeometry width="50" height="50" relative="1" as="geometry">
            <mxPoint x="170" y="430" as="sourcePoint" />
            <mxPoint x="525" y="420" as="targetPoint" />
          </mxGeometry>
        </mxCell>
        <mxCell id="s9Bnqli66w5FFqCg6i3b-20" value="" style="endArrow=classic;html=1;rounded=0;entryX=0.5;entryY=0;entryDx=0;entryDy=0;exitX=0.5;exitY=1;exitDx=0;exitDy=0;" edge="1" parent="1" source="s9Bnqli66w5FFqCg6i3b-13" target="s9Bnqli66w5FFqCg6i3b-14">
          <mxGeometry width="50" height="50" relative="1" as="geometry">
            <mxPoint x="180" y="440" as="sourcePoint" />
            <mxPoint x="180" y="560" as="targetPoint" />
          </mxGeometry>
        </mxCell>
        <mxCell id="s9Bnqli66w5FFqCg6i3b-21" value="" style="endArrow=classic;html=1;rounded=0;entryX=0.5;entryY=0;entryDx=0;entryDy=0;exitX=0;exitY=0.5;exitDx=0;exitDy=0;" edge="1" parent="1" source="s9Bnqli66w5FFqCg6i3b-14" target="s9Bnqli66w5FFqCg6i3b-16">
          <mxGeometry width="50" height="50" relative="1" as="geometry">
            <mxPoint x="190" y="450" as="sourcePoint" />
            <mxPoint x="190" y="570" as="targetPoint" />
            <Array as="points">
              <mxPoint x="110" y="620" />
            </Array>
          </mxGeometry>
        </mxCell>
        <mxCell id="s9Bnqli66w5FFqCg6i3b-22" value="" style="endArrow=classic;html=1;rounded=0;entryX=0.5;entryY=0;entryDx=0;entryDy=0;exitX=1;exitY=0.5;exitDx=0;exitDy=0;" edge="1" parent="1" source="s9Bnqli66w5FFqCg6i3b-14" target="s9Bnqli66w5FFqCg6i3b-15">
          <mxGeometry width="50" height="50" relative="1" as="geometry">
            <mxPoint x="200" y="460" as="sourcePoint" />
            <mxPoint x="200" y="580" as="targetPoint" />
            <Array as="points">
              <mxPoint x="280" y="620" />
            </Array>
          </mxGeometry>
        </mxCell>
        <mxCell id="s9Bnqli66w5FFqCg6i3b-23" value="" style="endArrow=classic;html=1;rounded=0;exitX=0.5;exitY=1;exitDx=0;exitDy=0;" edge="1" parent="1" source="s9Bnqli66w5FFqCg6i3b-15" target="s9Bnqli66w5FFqCg6i3b-2">
          <mxGeometry width="50" height="50" relative="1" as="geometry">
            <mxPoint x="210" y="470" as="sourcePoint" />
            <mxPoint x="210" y="590" as="targetPoint" />
            <Array as="points">
              <mxPoint x="320" y="720" />
            </Array>
          </mxGeometry>
        </mxCell>
        <mxCell id="s9Bnqli66w5FFqCg6i3b-24" value="" style="endArrow=classic;html=1;rounded=0;entryX=0.5;entryY=0;entryDx=0;entryDy=0;exitX=0.5;exitY=1;exitDx=0;exitDy=0;" edge="1" parent="1" source="s9Bnqli66w5FFqCg6i3b-16" target="s9Bnqli66w5FFqCg6i3b-17">
          <mxGeometry width="50" height="50" relative="1" as="geometry">
            <mxPoint x="180" y="580" as="sourcePoint" />
            <mxPoint x="180" y="620" as="targetPoint" />
          </mxGeometry>
        </mxCell>
        <mxCell id="s9Bnqli66w5FFqCg6i3b-25" value="" style="endArrow=classic;html=1;rounded=0;entryX=0.5;entryY=0;entryDx=0;entryDy=0;exitX=0.5;exitY=1;exitDx=0;exitDy=0;" edge="1" parent="1" source="s9Bnqli66w5FFqCg6i3b-17" target="s9Bnqli66w5FFqCg6i3b-18">
          <mxGeometry width="50" height="50" relative="1" as="geometry">
            <mxPoint x="190" y="620" as="sourcePoint" />
            <mxPoint x="190" y="660" as="targetPoint" />
          </mxGeometry>
        </mxCell>
        <mxCell id="s9Bnqli66w5FFqCg6i3b-26" value="Se envia a&amp;nbsp;&lt;br&gt;servidores" style="text;html=1;align=center;verticalAlign=middle;resizable=0;points=[];autosize=1;strokeColor=none;fillColor=none;" vertex="1" parent="1">
          <mxGeometry x="75" y="455" width="80" height="40" as="geometry" />
        </mxCell>
        <mxCell id="s9Bnqli66w5FFqCg6i3b-27" value="" style="endArrow=classic;html=1;rounded=0;entryX=0;entryY=0.5;entryDx=0;entryDy=0;exitX=1;exitY=0.5;exitDx=0;exitDy=0;" edge="1" parent="1" source="s9Bnqli66w5FFqCg6i3b-13" target="s9Bnqli66w5FFqCg6i3b-7">
          <mxGeometry width="50" height="50" relative="1" as="geometry">
            <mxPoint x="180" y="440" as="sourcePoint" />
            <mxPoint x="180" y="560" as="targetPoint" />
          </mxGeometry>
        </mxCell>
        <mxCell id="s9Bnqli66w5FFqCg6i3b-28" value="Se cncela el envÃ­o" style="text;html=1;align=center;verticalAlign=middle;resizable=0;points=[];autosize=1;strokeColor=none;fillColor=none;" vertex="1" parent="1">
          <mxGeometry x="260" y="530" width="120" height="30" as="geometry" />
        </mxCell>
        <mxCell id="s9Bnqli66w5FFqCg6i3b-29" value="Validado por&lt;br&gt;&amp;nbsp;experto" style="text;html=1;align=center;verticalAlign=middle;resizable=0;points=[];autosize=1;strokeColor=none;fillColor=none;" vertex="1" parent="1">
          <mxGeometry x="30" y="630" width="90" height="40" as="geometry" />
        </mxCell>
        <mxCell id="s9Bnqli66w5FFqCg6i3b-30" value="Se envÃ­a a&lt;br&gt;&amp;nbsp;autoridades" style="text;html=1;align=center;verticalAlign=middle;resizable=0;points=[];autosize=1;strokeColor=none;fillColor=none;" vertex="1" parent="1">
          <mxGeometry x="100" y="700" width="90" height="40" as="geometry" />
        </mxCell>
        <mxCell id="s9Bnqli66w5FFqCg6i3b-33" value="" style="endArrow=classic;html=1;rounded=0;entryX=0;entryY=0.5;entryDx=0;entryDy=0;exitX=1;exitY=0.5;exitDx=0;exitDy=0;" edge="1" parent="1" source="s9Bnqli66w5FFqCg6i3b-18" target="s9Bnqli66w5FFqCg6i3b-2">
          <mxGeometry width="50" height="50" relative="1" as="geometry">
            <mxPoint x="120" y="790" as="sourcePoint" />
            <mxPoint x="120" y="830" as="targetPoint" />
          </mxGeometry>
        </mxCell>
      </root>
    </mxGraphModel>
  </diagram>
</mxfile>
